<mxfile host="1597810c-58a5-40b0-87b4-41cb3c4ef19a" modified="2020-08-23T06:16:53.280Z" agent="5.0 (X11; Linux x86_64) AppleWebKit/537.36 (KHTML, like Gecko) Code/1.48.1 Chrome/78.0.3904.130 Electron/7.3.2 Safari/537.36" etag="oB_ZiqjPeMqsdmkDmgH8" version="13.1.3">
    <diagram id="6hGFLwfOUW9BJ-s0fimq" name="Page-1">
        <mxGraphModel dx="681" dy="621" grid="1" gridSize="10" guides="1" tooltips="1" connect="1" arrows="1" fold="1" page="1" pageScale="1" pageWidth="827" pageHeight="1169" math="0" shadow="0">
            <root>
                <mxCell id="0"/>
                <mxCell id="1" parent="0"/>
                <mxCell id="14" value="" style="edgeStyle=orthogonalEdgeStyle;rounded=0;orthogonalLoop=1;jettySize=auto;html=1;entryX=0.5;entryY=0;entryDx=0;entryDy=0;" parent="1" source="2" target="7" edge="1">
                    <mxGeometry relative="1" as="geometry">
                        <mxPoint x="512" y="50" as="targetPoint"/>
                        <Array as="points">
                            <mxPoint x="540" y="50"/>
                        </Array>
                    </mxGeometry>
                </mxCell>
                <mxCell id="27" style="edgeStyle=orthogonalEdgeStyle;rounded=0;orthogonalLoop=1;jettySize=auto;html=1;exitX=0;exitY=0.5;exitDx=0;exitDy=0;entryX=0.5;entryY=0;entryDx=0;entryDy=0;" parent="1" source="2" target="5" edge="1">
                    <mxGeometry relative="1" as="geometry"/>
                </mxCell>
                <mxCell id="2" value="TO- DO" style="shape=parallelogram;perimeter=parallelogramPerimeter;whiteSpace=wrap;html=1;fillColor=#008a00;strokeColor=#005700;fontColor=#ffffff;" parent="1" vertex="1">
                    <mxGeometry x="300" y="20" width="120" height="60" as="geometry"/>
                </mxCell>
                <mxCell id="3" value="Expense add Event handler integration" style="rounded=0;whiteSpace=wrap;html=1;fontFamily=Helvetica;fontSize=12;fontColor=#ffffff;align=center;strokeColor=#6F0000;fillColor=none;strokeWidth=2;" parent="1" vertex="1">
                    <mxGeometry x="300" y="200" width="120" height="40" as="geometry"/>
                </mxCell>
                <mxCell id="25" value="" style="edgeStyle=orthogonalEdgeStyle;rounded=0;orthogonalLoop=1;jettySize=auto;html=1;entryX=0.5;entryY=0;entryDx=0;entryDy=0;" parent="1" source="5" target="9" edge="1">
                    <mxGeometry relative="1" as="geometry"/>
                </mxCell>
                <mxCell id="5" value="Getting Input values from input field" style="rounded=0;whiteSpace=wrap;html=1;fontFamily=Helvetica;fontSize=12;fontColor=#ffffff;align=center;strokeColor=#008500;fillColor=none;strokeWidth=2;" parent="1" vertex="1">
                    <mxGeometry x="120" y="80" width="120" height="40" as="geometry"/>
                </mxCell>
                <mxCell id="24" value="Update UI" style="rounded=0;whiteSpace=wrap;html=1;fontFamily=Helvetica;fontSize=12;fontColor=#ffffff;align=center;strokeColor=#008500;fillColor=none;strokeWidth=2;" parent="1" vertex="1">
                    <mxGeometry x="120" y="240" width="120" height="40" as="geometry"/>
                </mxCell>
                <mxCell id="16" style="edgeStyle=orthogonalEdgeStyle;rounded=0;orthogonalLoop=1;jettySize=auto;html=1;exitX=0.5;exitY=1;exitDx=0;exitDy=0;entryX=0.5;entryY=0;entryDx=0;entryDy=0;" parent="1" source="7" target="11" edge="1">
                    <mxGeometry relative="1" as="geometry"/>
                </mxCell>
                <mxCell id="7" value="Add Input value to data structure" style="rounded=0;whiteSpace=wrap;html=1;fontFamily=Helvetica;fontSize=12;fontColor=#ffffff;align=center;strokeColor=#00FFFF;fillColor=none;strokeWidth=2;" parent="1" vertex="1">
                    <mxGeometry x="480" y="80" width="120" height="40" as="geometry"/>
                </mxCell>
                <mxCell id="26" style="edgeStyle=orthogonalEdgeStyle;rounded=0;orthogonalLoop=1;jettySize=auto;html=1;exitX=0.5;exitY=1;exitDx=0;exitDy=0;" parent="1" source="9" target="24" edge="1">
                    <mxGeometry relative="1" as="geometry"/>
                </mxCell>
                <mxCell id="9" value="Add new item&amp;nbsp;to UI" style="rounded=0;whiteSpace=wrap;html=1;fontFamily=Helvetica;fontSize=12;fontColor=#ffffff;align=center;strokeColor=#008500;fillColor=none;strokeWidth=2;" parent="1" vertex="1">
                    <mxGeometry x="120" y="160" width="120" height="40" as="geometry"/>
                </mxCell>
                <mxCell id="11" value="Update Budget with input value" style="rounded=0;whiteSpace=wrap;html=1;fontFamily=Helvetica;fontSize=12;fontColor=#ffffff;align=center;strokeColor=#00FFFF;fillColor=none;strokeWidth=2;" parent="1" vertex="1">
                    <mxGeometry x="480" y="160" width="120" height="40" as="geometry"/>
                </mxCell>
                <mxCell id="19" value="UI Modules&lt;br&gt;" style="text;html=1;strokeColor=none;fillColor=none;align=center;verticalAlign=middle;whiteSpace=wrap;rounded=0;" parent="1" vertex="1">
                    <mxGeometry x="190" y="30" width="120" height="20" as="geometry"/>
                </mxCell>
                <mxCell id="21" value="Data Modules" style="text;html=1;strokeColor=none;fillColor=none;align=center;verticalAlign=middle;whiteSpace=wrap;rounded=0;" parent="1" vertex="1">
                    <mxGeometry x="420" y="30" width="100" height="20" as="geometry"/>
                </mxCell>
                <mxCell id="22" value="Controller Modules" style="text;html=1;strokeColor=none;fillColor=none;align=center;verticalAlign=middle;whiteSpace=wrap;rounded=0;rotation=90;" parent="1" vertex="1">
                    <mxGeometry x="320" y="130" width="114" height="20" as="geometry"/>
                </mxCell>
                <mxCell id="23" value="" style="edgeStyle=orthogonalEdgeStyle;rounded=0;orthogonalLoop=1;jettySize=auto;html=1;entryX=0.5;entryY=0;entryDx=0;entryDy=0;" parent="1" source="2" target="3" edge="1">
                    <mxGeometry relative="1" as="geometry">
                        <mxPoint x="360" y="80" as="sourcePoint"/>
                        <mxPoint x="360" y="160" as="targetPoint"/>
                    </mxGeometry>
                </mxCell>
                <mxCell id="29" value="" style="endArrow=none;html=1;strokeWidth=3;strokeColor=#FF0000;" parent="1" edge="1">
                    <mxGeometry width="50" height="50" relative="1" as="geometry">
                        <mxPoint x="100" y="130" as="sourcePoint"/>
                        <mxPoint x="260" y="70" as="targetPoint"/>
                    </mxGeometry>
                </mxCell>
                <mxCell id="30" value="" style="shape=flexArrow;endArrow=classic;html=1;strokeColor=#FF0000;strokeWidth=3;endWidth=6;endSize=3.47;" parent="1" edge="1">
                    <mxGeometry width="50" height="50" relative="1" as="geometry">
                        <mxPoint x="80" y="179.5" as="sourcePoint"/>
                        <mxPoint x="110" y="179.5" as="targetPoint"/>
                        <Array as="points">
                            <mxPoint x="100" y="180"/>
                        </Array>
                    </mxGeometry>
                </mxCell>
                <mxCell id="31" value="" style="endArrow=none;html=1;fillColor=#e51400;strokeColor=#F70000;strokeWidth=3;" edge="1" parent="1">
                    <mxGeometry width="50" height="50" relative="1" as="geometry">
                        <mxPoint x="460" y="130" as="sourcePoint"/>
                        <mxPoint x="620" y="70" as="targetPoint"/>
                    </mxGeometry>
                </mxCell>
            </root>
        </mxGraphModel>
    </diagram>
</mxfile>